<?xml version="1.0" encoding="UTF-8" standalone="no"?>
<!DOCTYPE svg PUBLIC "-//W3C//DTD SVG 1.1//EN" "http://www.w3.org/Graphics/SVG/1.1/DTD/svg11.dtd">
<svg width="100%" height="100%" viewBox="0 0 32 32" version="1.1" xmlns="http://www.w3.org/2000/svg" xmlns:xlink="http://www.w3.org/1999/xlink" xml:space="preserve" xmlns:serif="http://www.serif.com/" style="fill-rule:evenodd;clip-rule:evenodd;stroke-linejoin:round;stroke-miterlimit:2;">
    <g transform="matrix(0.124786,0,0,0.132192,-43.843,-33.8491)">
        <g transform="matrix(1,0,0,1,-88.4746,-133.642)">
            <path d="M660.34,631.06L631.93,631.06L631.74,628.73L629.67,602.76L629.67,602.75L627.52,575.75L640.63,520.06L651.77,531.2L651.77,584.27C651.77,584.27 658.32,594.1 657.01,596.72C655.7,599.34 654.39,599.34 655.7,601.3C657.01,603.27 658.32,604.58 657.01,605.89C655.704,607.633 655.704,610.047 657.01,611.79C658.32,613.1 660.94,615.06 658.97,617.03C657.01,618.99 654.39,617.68 657.01,624.89C657.49,626.223 658.093,627.508 658.81,628.73C659.277,629.534 659.788,630.312 660.34,631.06Z" style="fill:rgb(208,205,225);fill-rule:nonzero;"/>
        </g>
        <g transform="matrix(1,0,0,1,-72.8496,-25.8996)">
            <path d="M557.189,343.847L553.258,383.159L593.225,389.056L596.173,366.452L599.122,343.847L557.189,343.847Z" style="fill:rgb(255,185,185);fill-rule:nonzero;"/>
        </g>
        <g transform="matrix(1,0,0,1,-72.8496,-25.8996)">
            <path d="M557.189,343.847L553.258,383.159L593.225,389.056L596.173,366.452L599.122,343.847L557.189,343.847Z" style="fill-opacity:0.1;fill-rule:nonzero;"/>
        </g>
        <g transform="matrix(1,0,0,1,-72.8496,-25.8996)">
            <circle cx="579.138" cy="325.174" r="31.45" style="fill:rgb(255,185,185);"/>
        </g>
        <g transform="matrix(1,0,0,1,-88.4746,-133.642)">
            <path d="M515.29,631.06C515.18,630.83 515.06,630.59 514.94,630.33C514.71,629.84 514.46,629.31 514.19,628.73C512.45,624.85 510.32,619.33 511.55,617.68C513.52,615.06 514.17,612.44 512.86,611.13C511.55,609.82 507.62,612.44 511.55,609.16C515.48,605.89 516.79,607.85 515.48,603.92C514.17,599.99 511.55,601.96 514.17,599.99C516.79,598.03 518.76,598.68 517.45,596.72C516.14,594.75 513.52,594.75 516.14,593.44C518.76,592.13 520.73,593.44 520.07,590.16C519.41,586.89 518.76,588.2 520.07,586.89C520.41,586.55 521.6,583.25 523.19,578.54C527.64,565.23 535.14,540.68 535.14,539.71C535.14,538.4 524.66,497.13 524.66,497.13L520.07,494.5C520.07,494.5 499.76,508.26 493.21,539.06C486.65,569.85 482.07,577.72 482.07,577.72C482.07,577.72 475.52,579.03 480.1,583.61C484.69,588.2 484.69,587.54 480.76,590.16C476.83,592.78 474.21,587.54 476.83,592.78C479.45,598.03 482.72,596.72 480.1,599.99C477.48,603.27 472.9,603.27 475.52,605.89C478.14,608.51 472.9,614.41 476.17,617.03C479.45,619.65 480.76,620.3 480.76,624.89C480.761,626.176 480.865,627.46 481.07,628.73C481.183,629.516 481.343,630.294 481.55,631.06C481.7,631.67 481.85,632.13 481.95,632.42L515.29,631.06Z" style="fill:rgb(208,205,225);fill-rule:nonzero;"/>
        </g>
        <g transform="matrix(1,0,0,1,-88.4746,-133.642)">
            <path d="M529.24,603.27L523.35,582.96L523.19,578.54L520.07,494.5L558.73,480.75L565.28,475.5C565.28,475.5 566.59,460.43 568.56,459.12C569.27,458.65 570.41,459.2 571.92,460.48C574.57,462.73 578.37,467.22 582.97,472.23C590.18,480.09 605.25,478.78 609.83,476.16C610.419,475.817 611.031,475.513 611.66,475.25C614.95,473.89 616.38,474.85 616.38,474.85C619.66,477.47 611.8,485.99 611.8,485.99C611.8,485.99 614.42,491.88 631.45,497.78C648.49,503.68 651.77,531.2 651.77,531.2C651.77,531.2 631.45,586.23 632.11,590.16C632.67,593.53 630.35,600.75 629.67,602.75L629.67,602.76C629.56,603.08 629.49,603.27 629.49,603.27L630.98,628.73L631.12,631.06L532.01,631.06C531.715,630.25 531.344,629.469 530.9,628.73C530.79,628.55 530.67,628.36 530.55,628.17C524.66,618.99 529.24,603.27 529.24,603.27Z" style="fill:rgb(208,205,225);fill-rule:nonzero;"/>
        </g>
        <g transform="matrix(1,0,0,1,-88.4746,-133.642)">
            <path d="M563.095,436.944C563.095,436.944 559.829,432.046 561.086,426.77C561.836,423.775 562.132,420.684 561.965,417.6C561.797,414.517 564.603,409.059 567.24,404.286C569.878,399.512 568.622,397.503 576.912,395.995C585.203,394.488 581.811,383.685 603.668,395.367C605.172,397.468 607.807,398.463 610.325,397.879C614.847,397 616.48,403.281 616.48,403.281C616.48,403.281 619.495,401.522 620.625,404.034C621.756,406.547 629.816,402.527 629.816,419.484C629.816,436.442 620.643,451.589 620.643,451.589C620.643,451.589 621.316,423.064 606.368,420.175C591.421,417.286 575.342,408.87 571.448,419.673C569.346,425.736 566.543,431.532 563.095,436.944Z" style="fill:rgb(47,46,65);fill-rule:nonzero;"/>
        </g>
        <g transform="matrix(1,0,0,1,-72.8496,-25.8996)">
            <ellipse cx="605.346" cy="332.054" rx="2.948" ry="3.931" style="fill:rgb(255,185,185);"/>
        </g>
    </g>
</svg>
