<?xml version="1.0" encoding="UTF-8" standalone="no"?>
<!DOCTYPE svg PUBLIC "-//W3C//DTD SVG 1.1//EN" "http://www.w3.org/Graphics/SVG/1.1/DTD/svg11.dtd">
<svg width="100%" height="100%" viewBox="0 0 32 32" version="1.1" xmlns="http://www.w3.org/2000/svg" xmlns:xlink="http://www.w3.org/1999/xlink" xml:space="preserve" xmlns:serif="http://www.serif.com/" style="fill-rule:evenodd;clip-rule:evenodd;stroke-linejoin:round;stroke-miterlimit:2;">
    <g id="OUTLINE_copy">
        <path id="Cat_4_" d="M18.52,24.493L13.992,24.493C13.992,24.493 13.998,23.149 13.992,22.228C10.893,22.895 10.028,20.529 10.028,20.529C9.462,19.397 8.896,18.83 8.896,18.83C7.764,18.157 8.896,18.264 8.896,18.264C10.028,18.264 10.595,19.396 10.595,19.396C11.589,21.083 13.357,20.812 13.992,20.528C13.992,19.962 14.24,19.106 14.558,18.829C12.085,18.55 10.026,17.13 10.026,14.299C10.026,11.468 10.594,10.902 11.161,10.335C11.047,10.056 10.573,9.024 11.179,7.504C11.179,7.504 12.292,7.504 13.424,9.203C13.985,8.642 15.689,8.637 16.256,8.637C16.821,8.637 18.525,8.642 19.086,9.203C20.218,7.504 21.334,7.504 21.334,7.504C21.939,9.024 21.466,10.056 21.351,10.335C21.917,10.901 22.483,11.467 22.483,14.299C22.483,17.131 20.427,18.55 17.953,18.829C18.272,19.105 18.519,20.08 18.519,20.528L18.52,24.493Z" style="fill:white;fill-rule:nonzero;"/>
        <path id="Shopping_10_107_" d="M16,1C24.271,1 31,7.729 31,16C31,24.271 24.271,31 16,31C7.729,31 1,24.271 1,16C1,7.729 7.729,1 16,1M16,0C7.163,0 0,7.164 0,16C0,24.836 7.163,32 16,32C24.837,32 32,24.837 32,16C32,7.163 24.836,0 16,0Z" style="fill:white;fill-rule:nonzero;"/>
    </g>
</svg>
