<?xml version="1.0" encoding="UTF-8" standalone="no"?>
<!DOCTYPE svg PUBLIC "-//W3C//DTD SVG 1.1//EN" "http://www.w3.org/Graphics/SVG/1.1/DTD/svg11.dtd">
<svg width="100%" height="100%" viewBox="0 0 32 32" version="1.1" xmlns="http://www.w3.org/2000/svg" xmlns:xlink="http://www.w3.org/1999/xlink" xml:space="preserve" xmlns:serif="http://www.serif.com/" style="fill-rule:evenodd;clip-rule:evenodd;stroke-linejoin:round;stroke-miterlimit:2;">
    <g id="OUTLINE_copy">
        <path d="M23.247,21.927L23.247,16.567C23.247,13.695 21.714,12.359 19.67,12.359C18.021,12.359 17.282,13.266 16.87,13.903L16.87,12.579L13.763,12.579C13.804,13.456 13.763,21.927 13.763,21.927L16.87,21.927L16.87,16.706C16.87,16.427 16.89,16.148 16.973,15.949C17.197,15.391 17.708,14.813 18.566,14.813C19.691,14.813 20.14,15.67 20.14,16.926L20.14,21.927L23.247,21.927ZM10.49,11.303C11.573,11.303 12.248,10.585 12.248,9.687C12.228,8.77 11.573,8.073 10.51,8.073C9.447,8.073 8.753,8.77 8.753,9.687C8.753,10.584 9.428,11.303 10.47,11.303L10.49,11.303ZM12.043,21.927L12.043,12.579L8.937,12.579L8.937,21.927L12.043,21.927Z" style="fill:white;fill-rule:nonzero;"/>
        <path id="Shopping_10_116_" d="M16,1C24.271,1 31,7.729 31,16C31,24.271 24.271,31 16,31C7.729,31 1,24.271 1,16C1,7.729 7.729,1 16,1M16,0C7.163,0 0,7.163 0,16C0,24.837 7.164,32 16,32C24.836,32 32,24.836 32,16C32,7.164 24.836,0 16,0Z" style="fill:white;fill-rule:nonzero;"/>
    </g>
</svg>
